<svg width="160" height="130" viewBox="0 0 160 130" fill="none" xmlns="http://www.w3.org/2000/svg">
<g filter="url(#filter0_di_455_106)">
<rect x="40" y="25" width="80" height="50" rx="20" fill="#5B6EE8" shape-rendering="crispEdges"/>
<path d="M52 46L60 54L68 46" stroke="white" stroke-width="2" stroke-linecap="round" stroke-linejoin="round"/>
<path fill-rule="evenodd" clip-rule="evenodd" d="M102.482 40.7796C97.5095 40.2239 92.4903 40.2239 87.5176 40.7796C87.1811 40.8172 87.0191 41.2118 87.232 41.475L91.6283 46.9094C93.2031 48.8562 94.0624 51.2844 94.0624 53.7884V57.3999L95.9374 58.7749V53.7884C95.9374 51.2844 96.7966 48.8562 98.3715 46.9094L102.768 41.475C102.981 41.2118 102.819 40.8172 102.482 40.7796ZM87.3093 38.9162C92.4204 38.345 97.5792 38.345 102.69 38.9162C104.499 39.1184 105.37 41.2394 104.225 42.6543L99.8291 48.0887C98.5242 49.7018 97.8124 51.7137 97.8124 53.7884V60.625C97.8124 60.9783 97.6137 61.3017 97.2986 61.4613C96.9835 61.621 96.6054 61.5899 96.3205 61.381L92.5705 58.631C92.3296 58.4544 92.1874 58.1737 92.1874 57.875V53.7884C92.1874 51.7137 91.4755 49.7018 90.1706 48.0887L85.7743 42.6543C84.6297 41.2394 85.5007 39.1184 87.3093 38.9162Z" fill="white"/>
</g>
<defs>
<filter id="filter0_di_455_106" x="0" y="0" width="160" height="130" filterUnits="userSpaceOnUse" color-interpolation-filters="sRGB">
<feFlood flood-opacity="0" result="BackgroundImageFix"/>
<feColorMatrix in="SourceAlpha" type="matrix" values="0 0 0 0 0 0 0 0 0 0 0 0 0 0 0 0 0 0 127 0" result="hardAlpha"/>
<feOffset dy="15"/>
<feGaussianBlur stdDeviation="20"/>
<feComposite in2="hardAlpha" operator="out"/>
<feColorMatrix type="matrix" values="0 0 0 0 0 0 0 0 0 0 0 0 0 0 0 0 0 0 0.25 0"/>
<feBlend mode="normal" in2="BackgroundImageFix" result="effect1_dropShadow_455_106"/>
<feBlend mode="normal" in="SourceGraphic" in2="effect1_dropShadow_455_106" result="shape"/>
<feColorMatrix in="SourceAlpha" type="matrix" values="0 0 0 0 0 0 0 0 0 0 0 0 0 0 0 0 0 0 127 0" result="hardAlpha"/>
<feOffset dy="1"/>
<feGaussianBlur stdDeviation="5"/>
<feComposite in2="hardAlpha" operator="arithmetic" k2="-1" k3="1"/>
<feColorMatrix type="matrix" values="0 0 0 0 0 0 0 0 0 0 0 0 0 0 0 0 0 0 0.25 0"/>
<feBlend mode="normal" in2="shape" result="effect2_innerShadow_455_106"/>
</filter>
</defs>
</svg>
